<svg width="980" height="420" viewBox="0 0 980 420" fill="none" xmlns="http://www.w3.org/2000/svg">
  <rect width="980" height="420" rx="18" fill="#F6F8FC"/>
  <rect x="42" y="54" width="896" height="312" rx="16" fill="white" stroke="#DDE3EF"/>
  <text x="490" y="39" text-anchor="middle" font-family="Inter,Segoe UI,Arial" font-size="22" font-weight="800" fill="#151922">Docker Architecture for Django E-Commerce</text>

  <rect x="92" y="135" width="190" height="120" rx="12" fill="#EFF6FF" stroke="#2563EB" stroke-width="2"/>
  <text x="187" y="174" text-anchor="middle" font-family="Inter,Segoe UI,Arial" font-size="18" font-weight="800" fill="#1E40AF">Browser</text>
  <text x="187" y="205" text-anchor="middle" font-family="Inter,Segoe UI,Arial" font-size="13" fill="#596070">localhost:8000</text>
  <text x="187" y="229" text-anchor="middle" font-family="Inter,Segoe UI,Arial" font-size="13" fill="#596070">/products/</text>

  <rect x="395" y="118" width="210" height="154" rx="12" fill="#ECFDF5" stroke="#12B886" stroke-width="2"/>
  <text x="500" y="157" text-anchor="middle" font-family="Inter,Segoe UI,Arial" font-size="18" font-weight="800" fill="#087F5B">Service web</text>
  <text x="500" y="187" text-anchor="middle" font-family="Inter,Segoe UI,Arial" font-size="13" fill="#596070">Django 5.2</text>
  <text x="500" y="211" text-anchor="middle" font-family="Inter,Segoe UI,Arial" font-size="13" fill="#596070">Gunicorn / runserver</text>
  <text x="500" y="235" text-anchor="middle" font-family="Inter,Segoe UI,Arial" font-size="13" fill="#596070">Container: django-app</text>

  <rect x="710" y="118" width="190" height="154" rx="12" fill="#FFF7ED" stroke="#F59F00" stroke-width="2"/>
  <text x="805" y="157" text-anchor="middle" font-family="Inter,Segoe UI,Arial" font-size="18" font-weight="800" fill="#B45309">Service db</text>
  <text x="805" y="187" text-anchor="middle" font-family="Inter,Segoe UI,Arial" font-size="13" fill="#596070">MySQL</text>
  <text x="805" y="211" text-anchor="middle" font-family="Inter,Segoe UI,Arial" font-size="13" fill="#596070">DB_ECOMMERCE</text>
  <text x="805" y="235" text-anchor="middle" font-family="Inter,Segoe UI,Arial" font-size="13" fill="#596070">Container: mysql-db</text>

  <rect x="700" y="305" width="210" height="42" rx="10" fill="#151922"/>
  <text x="805" y="331" text-anchor="middle" font-family="Inter,Segoe UI,Arial" font-size="14" font-weight="700" fill="white">Persistent volume: db_data</text>

  <path d="M292 195H385" stroke="#69707F" stroke-width="3" stroke-linecap="round"/>
  <path d="M372 184L386 195L372 206" stroke="#69707F" stroke-width="3" stroke-linecap="round" stroke-linejoin="round"/>
  <text x="338" y="180" text-anchor="middle" font-family="Inter,Segoe UI,Arial" font-size="12" fill="#596070">HTTP</text>

  <path d="M616 195H700" stroke="#69707F" stroke-width="3" stroke-linecap="round"/>
  <path d="M687 184L701 195L687 206" stroke="#69707F" stroke-width="3" stroke-linecap="round" stroke-linejoin="round"/>
  <text x="658" y="180" text-anchor="middle" font-family="Inter,Segoe UI,Arial" font-size="12" fill="#596070">MYSQL_HOST=db</text>

  <path d="M805 274V297" stroke="#69707F" stroke-width="3" stroke-linecap="round"/>
  <path d="M794 287L805 301L816 287" stroke="#69707F" stroke-width="3" stroke-linecap="round" stroke-linejoin="round"/>
</svg>
